<svg width="197" height="76" viewBox="0 0 197 76" fill="none" xmlns="http://www.w3.org/2000/svg">
<path fill-rule="evenodd" clip-rule="evenodd" d="M41.4006 28.762C39.8537 27.9098 38.135 26.9511 36.2229 26.6954C32.4846 26.248 29.6486 26.5463 29.6486 26.5463L22.3009 26.8872C20.6466 26.9724 18.9708 26.5037 17.6388 25.5237C16.3497 24.5862 14.9962 23.1162 13.6641 20.8578C13.5137 20.6021 13.3204 20.4104 13.0626 20.2826C12.9981 20.24 12.9122 20.1973 12.8477 20.1547C12.3106 19.7925 11.9669 19.0895 12.0743 18.4077C12.1817 17.7686 12.6758 17.3851 12.9551 17.1933C13.5567 16.7459 14.2442 16.6181 14.7598 16.5968C15.211 16.5755 15.6622 16.4689 16.0704 16.2346L25.4591 10.6739C25.7384 10.5035 25.9533 10.2478 26.0392 9.94954C26.5333 8.35165 27.9084 7.30769 29.2834 7.329C30.0998 7.3503 30.7443 7.73379 31.174 8.09598C31.5822 8.43687 32.1408 8.586 32.6779 8.50078C35.8791 7.92554 39.0803 7.3503 42.2815 6.79636C42.7541 6.71114 43.0119 6.19982 42.7971 5.77371C42.303 4.85759 41.6799 4.02669 40.928 3.2597C38.7365 1.08657 35.8146 0 32.1623 0H3C1.34314 0 0 1.34315 0 3V52.7984C0 54.4552 1.3399 55.7984 2.99676 55.7984C10.9632 55.7984 32.2196 55.7984 34.5685 55.7984C38.2209 55.7984 41.1428 54.7118 43.3342 52.5387C45.5256 50.3655 46.2346 47.4254 46.1917 43.8461V38.2642C46.1917 35.6649 46.1272 33.6196 45.0959 32.1709C44.0647 30.6795 42.8401 29.5503 41.4006 28.762Z" fill="#39B059"/>
<path fill-rule="evenodd" clip-rule="evenodd" d="M67.3706 14.6271C66.3985 15.5039 65.1172 15.9423 63.5265 15.9423H57.5615V0.597778H67.5032V3.97358H61.0963V6.29718H63.5265C65.1172 6.29718 66.3985 6.7356 67.3706 7.63435C68.3427 8.51118 68.8287 9.67299 68.8287 11.1198C68.8287 12.5665 68.3427 13.7283 67.3706 14.6271ZM61.0967 12.6542H63.5269C64.6978 12.6542 65.2943 12.15 65.2943 11.1198C65.2943 10.0895 64.6978 9.5853 63.5269 9.5853H61.0967V12.6542ZM75.6778 16.2492C77.3126 16.2492 78.7044 15.7012 79.8312 14.5832C80.9579 13.4653 81.5323 12.0843 81.5323 10.4621C81.5323 8.84 80.9579 7.48091 79.8312 6.36295C78.7044 5.24499 77.3126 4.67505 75.6778 4.67505C74.0429 4.67505 72.6511 5.24499 71.5244 6.36295C70.3976 7.48091 69.8232 8.84 69.8232 10.4621C69.8232 12.0843 70.3976 13.4653 71.5244 14.5832C72.6511 15.7012 74.0429 16.2492 75.6778 16.2492ZM73.8658 12.3254C74.3518 12.8077 74.9483 13.0488 75.6774 13.0488C76.4065 13.0488 77.003 12.8077 77.489 12.3254C77.975 11.8431 78.218 11.2294 78.218 10.4621C78.218 9.69491 77.975 9.08112 77.489 8.59887C77.003 8.11661 76.4065 7.87548 75.6774 7.87548C74.9483 7.87548 74.3518 8.11661 73.8658 8.59887C73.3798 9.08112 73.1368 9.69491 73.1368 10.4621C73.1368 11.2294 73.3798 11.8431 73.8658 12.3254ZM87.3206 11.4047V8.13853H89.7066V15.9423H93.0204V4.98193H84.0067V11.1855C84.0067 12.5665 83.4544 13.1584 82.416 12.8734V15.9423C85.6194 16.315 87.3206 14.7367 87.3206 11.4047ZM104.95 12.1062C104.95 14.4079 103.271 15.9423 100.62 15.9423H95.4502V4.98194H98.7641V8.27005H100.62C103.271 8.27005 104.95 9.80451 104.95 12.1062ZM100.642 13.0926H98.7637V11.1198H100.642C102.055 10.9882 102.055 13.2241 100.642 13.0926ZM122.735 4.98193V15.9423H106.607V4.98193H109.921V12.8734H113.014V4.98193H116.328V12.8734H119.421V4.98193H122.735ZM129.892 16.2492C131.306 16.2492 132.411 15.8108 133.184 14.9121V15.9423H136.498V4.98194H133.184V6.01221C132.411 5.11346 131.306 4.67504 129.892 4.67504C128.434 4.67504 127.197 5.24499 126.159 6.36295C125.12 7.48091 124.612 8.83999 124.612 10.4621C124.612 12.0843 125.12 13.4653 126.159 14.5832C127.197 15.7012 128.434 16.2492 129.892 16.2492ZM128.655 12.4131C129.141 12.8954 129.782 13.1365 130.555 13.1365C131.328 13.1365 131.969 12.8954 132.455 12.4131C132.941 11.9308 133.184 11.2732 133.184 10.4621C133.184 9.65108 132.941 8.99345 132.455 8.5112C131.969 8.02894 131.328 7.78781 130.555 7.78781C129.782 7.78781 129.141 8.02894 128.655 8.5112C128.169 8.99345 127.926 9.65108 127.926 10.4621C127.926 11.2732 128.169 11.9308 128.655 12.4131ZM141.911 15.9423L144.186 12.7857H144.871V15.9423H148.097V4.98194H142.706C141.447 4.98194 140.431 5.37651 139.702 6.16566C138.973 6.93289 138.597 7.85356 138.597 8.88384C138.597 10.2868 139.414 11.6459 140.74 12.3254L138.155 15.9423H141.911ZM142.993 10.0676H144.871V7.87548H142.993C142.286 7.87548 141.822 8.29197 141.822 8.99344C141.822 9.67298 142.286 10.0676 142.993 10.0676Z" fill="#242440"/>
<path fill-rule="evenodd" clip-rule="evenodd" d="M64.9401 38.1701C67.7459 38.1701 70.2423 36.811 71.5679 34.6189L68.5191 32.8652C67.8784 34.027 66.5087 34.7504 64.9401 34.7504C63.5704 34.7504 62.4658 34.3339 61.6483 33.5009C60.8309 32.6679 60.4332 31.5719 60.4332 30.1909C60.4332 28.8099 60.8309 27.7138 61.6483 26.8809C62.4658 26.0479 63.5704 25.6314 64.9401 25.6314C66.5087 25.6314 67.8342 26.3109 68.5191 27.5166L71.5679 25.7629C70.2202 23.5708 67.7017 22.2117 64.9401 22.2117C62.6204 22.2117 60.6984 22.979 59.174 24.5134C57.6496 26.0259 56.8984 27.9331 56.8984 30.1909C56.8984 32.4487 57.6496 34.3558 59.174 35.8903C60.6984 37.4028 62.6204 38.1701 64.9401 38.1701ZM78.9907 37.8632V30.0594H82.2825V26.9028H72.3408V30.0594H75.6768V37.8632H78.9907ZM87.0327 36.8329V42.2473H83.7188V26.9028H87.0327V27.9331C87.8059 27.0343 88.9105 26.5959 90.3244 26.5959C91.7825 26.5959 93.0197 27.1658 94.0581 28.2838C95.0964 29.4017 95.6046 30.7608 95.6046 32.383C95.6046 34.0051 95.0964 35.3861 94.0581 36.5041C93.0197 37.622 91.7825 38.1701 90.3244 38.1701C88.9105 38.1701 87.8059 37.7316 87.0327 36.8329ZM89.6612 35.0573C88.888 35.0573 88.2694 34.8162 87.7613 34.3339C87.2752 33.8517 87.0322 33.1941 87.0322 32.383C87.0322 31.5719 87.2752 30.9143 87.7613 30.432C88.2694 29.9498 88.888 29.7086 89.6612 29.7086C90.4345 29.7086 91.0531 29.9498 91.5391 30.432C92.0472 30.9143 92.2902 31.5719 92.2902 32.383C92.2902 33.1941 92.0472 33.8517 91.5391 34.3339C91.0531 34.8162 90.4345 35.0573 89.6612 35.0573ZM105.502 36.8329C104.728 37.7316 103.624 38.1701 102.21 38.1701C100.752 38.1701 99.5145 37.622 98.4762 36.5041C97.4378 35.3861 96.9297 34.0051 96.9297 32.383C96.9297 30.7608 97.4378 29.4017 98.4762 28.2838C99.5145 27.1658 100.752 26.5959 102.21 26.5959C103.624 26.5959 104.728 27.0343 105.502 27.9331V26.9028H108.815V37.8632H105.502V36.8329ZM102.873 35.0573C102.1 35.0573 101.459 34.8162 100.973 34.3339C100.487 33.8517 100.244 33.194 100.244 32.383C100.244 31.5719 100.487 30.9143 100.973 30.432C101.459 29.9498 102.1 29.7086 102.873 29.7086C103.646 29.7086 104.287 29.9498 104.773 30.432C105.259 30.9143 105.502 31.5719 105.502 32.383C105.502 33.194 105.259 33.8517 104.773 34.3339C104.287 34.8162 103.646 35.0573 102.873 35.0573ZM118.316 33.9174H114.56V37.8632H111.246V26.9028H114.56V30.8485H118.316V26.9028H121.63V37.8632H118.316V33.9174ZM128.788 38.1701C130.202 38.1701 131.306 37.7316 132.08 36.8329V37.8632H135.394V26.9028H132.08V27.9331C131.306 27.0343 130.202 26.5959 128.788 26.5959C127.33 26.5959 126.093 27.1658 125.054 28.2838C124.016 29.4017 123.508 30.7608 123.508 32.383C123.508 34.0051 124.016 35.3861 125.054 36.5041C126.093 37.622 127.33 38.1701 128.788 38.1701ZM127.55 34.3339C128.036 34.8162 128.677 35.0573 129.45 35.0573C130.224 35.0573 130.864 34.8162 131.35 34.3339C131.836 33.8517 132.079 33.194 132.079 32.383C132.079 31.5719 131.836 30.9143 131.35 30.432C130.864 29.9498 130.224 29.7086 129.45 29.7086C128.677 29.7086 128.036 29.9498 127.55 30.432C127.064 30.9143 126.821 31.5719 126.821 32.383C126.821 33.194 127.064 33.8517 127.55 34.3339Z" fill="#242440"/>
<path fill-rule="evenodd" clip-rule="evenodd" d="M62.5434 54.4443C62.0011 55.35 60.9798 55.9239 59.823 55.9239C58.874 55.9239 58.0877 55.6101 57.4641 54.9823C56.8405 54.3546 56.5332 53.5834 56.5332 52.6597C56.5332 51.7361 56.8405 50.9559 57.4641 50.3371C58.0877 49.7094 58.874 49.3955 59.823 49.3955C60.9708 49.3955 62.0011 49.9694 62.5434 50.8752L61.4679 51.4939C61.1515 50.929 60.546 50.5972 59.823 50.5972C59.2084 50.5972 58.7113 50.7855 58.3317 51.1711C57.9612 51.5567 57.7714 52.0499 57.7714 52.6597C57.7714 53.2605 57.9612 53.7538 58.3317 54.1394C58.7113 54.525 59.2084 54.7133 59.823 54.7133C60.546 54.7133 61.1696 54.3725 61.4679 53.8255L62.5434 54.4443ZM68.7072 54.9823C68.0655 55.6101 67.2883 55.9239 66.3754 55.9239C65.4626 55.9239 64.6854 55.6101 64.0437 54.9823C63.411 54.3456 63.0947 53.5744 63.0947 52.6597C63.0947 51.745 63.411 50.9738 64.0437 50.3461C64.6854 49.7094 65.4626 49.3955 66.3754 49.3955C67.2883 49.3955 68.0655 49.7094 68.7072 50.3461C69.3489 50.9738 69.6652 51.745 69.6652 52.6597C69.6652 53.5744 69.3489 54.3456 68.7072 54.9823ZM66.3754 54.7133C65.797 54.7133 65.309 54.525 64.9203 54.1394C64.5317 53.7538 64.3329 53.2605 64.3329 52.6597C64.3329 52.0589 64.5317 51.5657 64.9203 51.1801C65.309 50.7945 65.797 50.5972 66.3754 50.5972C66.9539 50.5972 67.4419 50.7945 67.8305 51.1801C68.2192 51.5657 68.418 52.0589 68.418 52.6597C68.418 53.2605 68.2192 53.7538 67.8305 54.1394C67.4419 54.525 66.9539 54.7133 66.3754 54.7133ZM75.8654 54.9823C75.2238 55.6101 74.4465 55.9239 73.5337 55.9239C72.6208 55.9239 71.8436 55.6101 71.2019 54.9823C70.5693 54.3456 70.2529 53.5744 70.2529 52.6597C70.2529 51.745 70.5693 50.9738 71.2019 50.3461C71.8436 49.7094 72.6208 49.3955 73.5337 49.3955C74.4465 49.3955 75.2238 49.7094 75.8654 50.3461C76.5071 50.9738 76.8235 51.745 76.8235 52.6597C76.8235 53.5744 76.5071 54.3456 75.8654 54.9823ZM73.5338 54.7133C72.9553 54.7133 72.4673 54.525 72.0787 54.1394C71.69 53.7538 71.4912 53.2605 71.4912 52.6597C71.4912 52.0589 71.69 51.5657 72.0787 51.1801C72.4673 50.7945 72.9553 50.5972 73.5338 50.5972C74.1122 50.5972 74.6002 50.7945 74.9889 51.1801C75.3775 51.5657 75.5763 52.0589 75.5763 52.6597C75.5763 53.2605 75.3775 53.7538 74.9889 54.1394C74.6002 54.525 74.1122 54.7133 73.5338 54.7133ZM81.6317 55.2603C81.243 55.619 80.7369 55.7984 80.1223 55.7984H77.7002V49.5211H81.6769V50.7048H78.9474V51.8975H80.1223C80.7369 51.8975 81.243 52.0768 81.6317 52.4445C82.0203 52.8032 82.2191 53.2695 82.2191 53.8434C82.2191 54.4263 82.0203 54.8926 81.6317 55.2603ZM80.122 54.6415H78.9471V53.0543H80.122C80.6191 53.0543 80.9806 53.3412 80.9806 53.8434C80.9806 54.3456 80.6191 54.6415 80.122 54.6415ZM91.0129 54.6147V57H89.7657V55.7984H82.9873V49.5211H84.2345V54.6147H86.0421V49.5211H87.2803V54.6147H89.0879V49.5211H90.3351V54.6147H91.0129ZM95.7571 55.7984V54.6147H93.091V53.2067H95.486V52.041H93.091V50.7048H95.712V49.5211H91.8438V55.7984H95.7571ZM102.355 54.4443C101.813 55.35 100.792 55.9239 99.6347 55.9239C98.6858 55.9239 97.8995 55.6101 97.2759 54.9823C96.6522 54.3546 96.345 53.5834 96.345 52.6597C96.345 51.7361 96.6522 50.9559 97.2759 50.3371C97.8995 49.7094 98.6858 49.3955 99.6347 49.3955C100.783 49.3955 101.813 49.9694 102.355 50.8752L101.28 51.4939C100.963 50.929 100.358 50.5972 99.6347 50.5972C99.0202 50.5972 98.5231 50.7855 98.1435 51.1711C97.7729 51.5567 97.5831 52.0499 97.5831 52.6597C97.5831 53.2605 97.7729 53.7538 98.1435 54.1394C98.5231 54.525 99.0202 54.7133 99.6347 54.7133C100.358 54.7133 100.981 54.3725 101.28 53.8255L102.355 54.4443ZM105.672 55.7984V50.7048H107.38V49.5211H102.726V50.7048H104.425V55.7984H105.672ZM112.161 55.2872C111.782 55.628 111.312 55.7984 110.76 55.7984H108.076V49.5211H110.571C111.113 49.5211 111.565 49.6914 111.935 50.0232C112.306 50.355 112.496 50.7765 112.496 51.2877C112.496 51.8078 112.297 52.2293 111.899 52.5431C112.45 52.857 112.731 53.3412 112.731 53.9779C112.731 54.507 112.541 54.9464 112.161 55.2872ZM110.571 52.0589H109.323V50.6779H110.571C110.968 50.6779 111.248 50.9738 111.248 51.3684C111.248 51.763 110.959 52.0589 110.571 52.0589ZM109.323 54.6415H110.76C111.185 54.6415 111.492 54.3277 111.492 53.8972C111.492 53.4758 111.185 53.1619 110.76 53.1619H109.323V54.6415ZM116.536 55.9239C117.448 55.9239 118.226 55.6101 118.867 54.9823C119.509 54.3456 119.825 53.5744 119.825 52.6597C119.825 51.745 119.509 50.9738 118.867 50.3461C118.226 49.7094 117.448 49.3955 116.536 49.3955C115.623 49.3955 114.845 49.7094 114.204 50.3461C113.571 50.9738 113.255 51.745 113.255 52.6597C113.255 53.5744 113.571 54.3456 114.204 54.9823C114.845 55.6101 115.623 55.9239 116.536 55.9239ZM115.08 54.1394C115.469 54.525 115.957 54.7133 116.536 54.7133C117.114 54.7133 117.602 54.525 117.991 54.1394C118.379 53.7538 118.578 53.2605 118.578 52.6597C118.578 52.0589 118.379 51.5657 117.991 51.1801C117.602 50.7945 117.114 50.5972 116.536 50.5972C115.957 50.5972 115.469 50.7945 115.08 51.1801C114.692 51.5657 114.493 52.0589 114.493 52.6597C114.493 53.2605 114.692 53.7538 115.08 54.1394ZM125.438 55.7984V50.7048H127.146V49.5211H122.491V50.7048H124.19V55.7984H125.438ZM132.586 49.5211L130.688 54.0676C130.182 55.2872 129.351 55.8611 128.194 55.7984V54.6416C128.872 54.7043 129.251 54.4532 129.532 53.9062L127.462 49.5211H128.709L130.092 52.5521L131.339 49.5211H132.586ZM134.512 55.7984V53.7358H135.623C136.229 53.7358 136.744 53.5296 137.16 53.126C137.576 52.7225 137.784 52.2203 137.784 51.6284C137.784 51.0366 137.576 50.5344 137.16 50.1308C136.744 49.7273 136.229 49.5211 135.623 49.5211H133.265V55.7984H134.512ZM134.512 52.579H135.623C136.157 52.579 136.545 52.1665 136.545 51.6284C136.545 51.0814 136.157 50.6779 135.623 50.6779H134.512V52.579ZM141.588 55.9239C142.501 55.9239 143.279 55.6101 143.92 54.9823C144.562 54.3456 144.878 53.5744 144.878 52.6597C144.878 51.745 144.562 50.9738 143.92 50.3461C143.279 49.7094 142.501 49.3955 141.588 49.3955C140.676 49.3955 139.898 49.7094 139.257 50.3461C138.624 50.9738 138.308 51.745 138.308 52.6597C138.308 53.5744 138.624 54.3456 139.257 54.9823C139.898 55.6101 140.676 55.9239 141.588 55.9239ZM140.133 54.1394C140.522 54.525 141.01 54.7133 141.588 54.7133C142.167 54.7133 142.655 54.525 143.044 54.1394C143.432 53.7538 143.631 53.2605 143.631 52.6597C143.631 52.0589 143.432 51.5657 143.044 51.1801C142.655 50.7945 142.167 50.5972 141.588 50.5972C141.01 50.5972 140.522 50.7945 140.133 51.1801C139.745 51.5657 139.546 52.0589 139.546 52.6597C139.546 53.2605 139.745 53.7538 140.133 54.1394ZM147.002 55.7984V50.7048H149.234V55.7984H150.482V49.5211H145.755V55.7984H147.002ZM155.57 54.6147V55.7984H151.656V49.5211H155.524V50.7048H152.903V52.041H155.299V53.2067H152.903V54.6147H155.57ZM157.694 55.7984V53.7358H158.805C159.411 53.7358 159.926 53.5296 160.342 53.126C160.757 52.7225 160.965 52.2203 160.965 51.6284C160.965 51.0366 160.757 50.5344 160.342 50.1309C159.926 49.7273 159.411 49.5211 158.805 49.5211H156.446V55.7984H157.694ZM157.694 52.579H158.806C159.339 52.579 159.728 52.1665 159.728 51.6285C159.728 51.0814 159.339 50.6779 158.806 50.6779H157.694V52.579ZM162.565 55.7984L162.945 54.6685H165.466L165.846 55.7984H167.202L164.978 49.5211H163.433L161.219 55.7984H162.565ZM163.343 53.5116H165.078L164.21 50.9469L163.343 53.5116ZM170.293 55.7984V50.7048H172.001V49.5211H167.347V50.7048H169.046V55.7984H170.293ZM178.02 54.9823C177.378 55.6101 176.601 55.9239 175.688 55.9239C174.775 55.9239 173.998 55.6101 173.356 54.9823C172.724 54.3456 172.407 53.5744 172.407 52.6597C172.407 51.745 172.724 50.9738 173.356 50.3461C173.998 49.7094 174.775 49.3955 175.688 49.3955C176.601 49.3955 177.378 49.7094 178.02 50.3461C178.661 50.9738 178.978 51.745 178.978 52.6597C178.978 53.5744 178.661 54.3456 178.02 54.9823ZM175.688 54.7133C175.11 54.7133 174.622 54.525 174.233 54.1394C173.845 53.7538 173.646 53.2605 173.646 52.6597C173.646 52.0589 173.845 51.5657 174.233 51.1801C174.622 50.7945 175.11 50.5972 175.688 50.5972C176.267 50.5972 176.755 50.7945 177.143 51.1801C177.532 51.5657 177.731 52.0589 177.731 52.6597C177.731 53.2605 177.532 53.7538 177.143 54.1394C176.755 54.525 176.267 54.7133 175.688 54.7133ZM181.102 53.7358V55.7984H179.854V49.5211H182.213C182.819 49.5211 183.334 49.7273 183.75 50.1309C184.166 50.5344 184.373 51.0366 184.373 51.6284C184.373 52.2203 184.166 52.7225 183.75 53.126C183.334 53.5296 182.819 53.7358 182.213 53.7358H181.102ZM182.213 52.579H181.102V50.6779H182.213C182.746 50.6779 183.135 51.0814 183.135 51.6285C183.135 52.1665 182.746 52.579 182.213 52.579ZM190.51 54.9823C189.868 55.6101 189.091 55.9239 188.178 55.9239C187.265 55.9239 186.488 55.6101 185.846 54.9823C185.214 54.3456 184.897 53.5744 184.897 52.6597C184.897 51.745 185.214 50.9738 185.846 50.3461C186.488 49.7094 187.265 49.3955 188.178 49.3955C189.091 49.3955 189.868 49.7094 190.51 50.3461C191.152 50.9738 191.468 51.745 191.468 52.6597C191.468 53.5744 191.152 54.3456 190.51 54.9823ZM188.178 54.7133C187.6 54.7133 187.112 54.525 186.723 54.1394C186.335 53.7538 186.136 53.2605 186.136 52.6597C186.136 52.0589 186.335 51.5657 186.723 51.1801C187.112 50.7945 187.6 50.5972 188.178 50.5972C188.757 50.5972 189.245 50.7945 189.633 51.1801C190.022 51.5657 190.221 52.0589 190.221 52.6597C190.221 53.2605 190.022 53.7538 189.633 54.1394C189.245 54.525 188.757 54.7133 188.178 54.7133ZM196.43 55.2872C196.05 55.628 195.58 55.7984 195.029 55.7984H192.345V49.5211H194.839C195.381 49.5211 195.833 49.6914 196.204 50.0232C196.574 50.355 196.764 50.7765 196.764 51.2877C196.764 51.8078 196.565 52.2293 196.168 52.5431C196.719 52.857 196.999 53.3413 196.999 53.978C196.999 54.507 196.809 54.9465 196.43 55.2872ZM194.839 52.0589H193.592V50.6779H194.839C195.237 50.6779 195.517 50.9738 195.517 51.3684C195.517 51.763 195.228 52.0589 194.839 52.0589ZM193.592 54.6415H195.029C195.454 54.6415 195.761 54.3277 195.761 53.8972C195.761 53.4758 195.454 53.1619 195.029 53.1619H193.592V54.6415Z" fill="#7F899A"/>
<path d="M0 73.6017V65.0024H2.80989C4.48129 65.0024 5.58345 65.6322 5.58345 67.0977C5.58345 67.9335 5.14743 68.7328 4.21484 69.0598V69.0841C5.2201 69.29 6.00736 70.0166 6.00736 71.2641C6.00736 72.6328 5.08687 73.6017 3.13691 73.6017H0ZM1.05371 68.7086H2.822C3.70615 68.7086 4.50552 68.3452 4.50552 67.3036C4.50552 66.4801 3.9605 65.9471 2.70089 65.9471L1.05371 65.9593V68.7086ZM1.05371 72.6449H3.04001C4.16639 72.6449 4.9052 72.1725 4.9052 71.1794C4.9052 70.2104 4.21484 69.6291 2.88256 69.6291H1.05371V72.6449Z" fill="#BFC4CC"/>
<path d="M10.0352 75.9998V67.7033H11.0162V68.7449H11.0283C11.4765 68.0425 12.2274 67.6307 13.1237 67.6307C14.7951 67.6307 15.9941 68.9508 15.9941 70.6949C15.9941 72.4874 14.7466 73.6744 13.1237 73.6744C12.1911 73.6744 11.4644 73.2626 11.0283 72.5843H11.0162V75.9998H10.0352ZM12.9904 72.7781C14.1774 72.7781 15.0009 71.8818 15.0009 70.6949C15.0009 69.3868 14.0926 68.5269 12.9783 68.5269C11.7793 68.5269 10.9678 69.4837 10.9678 70.6949C10.9678 71.9424 11.864 72.7781 12.9904 72.7781Z" fill="#BFC4CC"/>
<path d="M22.3154 70.5496C22.3154 70.707 22.2912 70.8766 22.2912 70.9492H17.6888C17.822 72.0514 18.5972 72.7781 19.7114 72.7781C20.4987 72.7781 21.0558 72.439 21.4192 71.9908L22.1095 72.5722C21.6009 73.2262 20.8621 73.6744 19.6751 73.6744C17.931 73.6744 16.6957 72.4632 16.6957 70.6586C16.6957 68.8782 17.9189 67.6307 19.6024 67.6307C21.2133 67.6307 22.3154 68.866 22.3154 70.5496ZM19.5903 68.5269C18.6456 68.5269 17.8947 69.1446 17.713 70.1499H21.3344C21.1891 69.1809 20.5593 68.5269 19.5903 68.5269Z" fill="#BFC4CC"/>
<path d="M28.5944 70.5496C28.5944 70.707 28.5702 70.8766 28.5702 70.9492H23.9678C24.101 72.0514 24.8761 72.7781 25.9904 72.7781C26.7777 72.7781 27.3348 72.439 27.6981 71.9908L28.3885 72.5722C27.8798 73.2262 27.141 73.6744 25.9541 73.6744C24.21 73.6744 22.9746 72.4632 22.9746 70.6586C22.9746 68.8782 24.1979 67.6307 25.8814 67.6307C27.4922 67.6307 28.5944 68.866 28.5944 70.5496ZM25.8693 68.5269C24.9246 68.5269 24.1737 69.1446 23.992 70.1499H27.6134C27.468 69.1809 26.8382 68.5269 25.8693 68.5269Z" fill="#BFC4CC"/>
<path d="M32.1967 73.6744C30.4768 73.6744 29.2536 72.4511 29.2536 70.6586C29.2536 68.8782 30.4768 67.6307 32.233 67.6307C33.1172 67.6307 34.0255 67.994 34.6069 68.6844L33.9408 69.2778C33.5653 68.8418 32.9839 68.5269 32.2815 68.5269C31.0703 68.5269 30.2588 69.4111 30.2588 70.6586C30.2588 71.9182 31.0703 72.7781 32.2694 72.7781C32.9718 72.7781 33.5895 72.4753 33.9529 72.0272L34.6311 72.6449C34.1345 73.2383 33.3473 73.6744 32.1967 73.6744Z" fill="#BFC4CC"/>
<path d="M36.9099 73.6017V68.5754H34.9357V67.7033H39.8652V68.5754H37.891V73.6017H36.9099Z" fill="#BFC4CC"/>
<path d="M40.6848 75.9998V67.7033H41.6658V68.7449H41.678C42.1261 68.0425 42.877 67.6307 43.7733 67.6307C45.4447 67.6307 46.6437 68.9508 46.6437 70.6949C46.6437 72.4874 45.3962 73.6744 43.7733 73.6744C42.8407 73.6744 42.114 73.2626 41.678 72.5843H41.6658V75.9998H40.6848ZM43.64 72.7781C44.827 72.7781 45.6506 71.8818 45.6506 70.6949C45.6506 69.3868 44.7422 68.5269 43.6279 68.5269C42.4289 68.5269 41.6174 69.4837 41.6174 70.6949C41.6174 71.9424 42.5137 72.7781 43.64 72.7781Z" fill="#BFC4CC"/>
<path d="M52.9651 70.5496C52.9651 70.707 52.9408 70.8766 52.9408 70.9492H48.3384C48.4717 72.0514 49.2468 72.7781 50.3611 72.7781C51.1483 72.7781 51.7055 72.439 52.0688 71.9908L52.7592 72.5722C52.2505 73.2262 51.5117 73.6744 50.3247 73.6744C48.5807 73.6744 47.3453 72.4632 47.3453 70.6586C47.3453 68.8782 48.5685 67.6307 50.2521 67.6307C51.8629 67.6307 52.9651 68.866 52.9651 70.5496ZM50.2399 68.5269C49.2952 68.5269 48.5443 69.1446 48.3627 70.1499H51.984C51.8387 69.1809 51.2089 68.5269 50.2399 68.5269Z" fill="#BFC4CC"/>
<path d="M58.2645 73.6017V68.5754H56.2903V67.7033H61.2197V68.5754H59.2456V73.6017H58.2645Z" fill="#BFC4CC"/>
<path d="M62.8388 75.9998L63.8925 73.3716L61.3854 67.7033H62.4512L64.3648 72.1846H64.389L66.1694 67.7033H67.1989L63.8561 75.9998H62.8388Z" fill="#BFC4CC"/>
<path d="M67.999 75.9998V67.7033H68.98V68.7449H68.9921C69.4403 68.0425 70.1912 67.6307 71.0875 67.6307C72.7589 67.6307 73.9579 68.9508 73.9579 70.6949C73.9579 72.4874 72.7104 73.6744 71.0875 73.6744C70.1549 73.6744 69.4282 73.2626 68.9921 72.5843H68.98V75.9998H67.999ZM70.9542 72.7781C72.1412 72.7781 72.9648 71.8818 72.9648 70.6949C72.9648 69.3868 72.0564 68.5269 70.9421 68.5269C69.7431 68.5269 68.9316 69.4837 68.9316 70.6949C68.9316 71.9424 69.8279 72.7781 70.9542 72.7781Z" fill="#BFC4CC"/>
<path d="M77.7116 73.6744C75.8828 73.6744 74.6595 72.3542 74.6595 70.6586C74.6595 68.9629 75.8828 67.6307 77.7116 67.6307C79.4557 67.6307 80.7516 68.866 80.7516 70.6586C80.7516 72.4511 79.4557 73.6744 77.7116 73.6744ZM77.7116 72.7781C78.838 72.7781 79.7463 71.9182 79.7463 70.6586C79.7463 69.399 78.8501 68.5269 77.7116 68.5269C76.4762 68.5269 75.6647 69.4837 75.6647 70.6586C75.6647 71.8334 76.4883 72.7781 77.7116 72.7781Z" fill="#BFC4CC"/>
<path d="M81.8107 73.6017V67.7033H86.8249V73.6017H85.8438V68.5754H82.7917V73.6017H81.8107Z" fill="#BFC4CC"/>
<path d="M93.5113 70.5496C93.5113 70.707 93.4871 70.8766 93.4871 70.9492H88.8847C89.0179 72.0514 89.7931 72.7781 90.9073 72.7781C91.6946 72.7781 92.2517 72.439 92.6151 71.9908L93.3054 72.5722C92.7968 73.2262 92.0579 73.6744 90.871 73.6744C89.1269 73.6744 87.8916 72.4632 87.8916 70.6586C87.8916 68.8782 89.1148 67.6307 90.7983 67.6307C92.4092 67.6307 93.5113 68.866 93.5113 70.5496ZM90.7862 68.5269C89.8415 68.5269 89.0906 69.1446 88.9089 70.1499H92.5303C92.385 69.1809 91.7552 68.5269 90.7862 68.5269Z" fill="#BFC4CC"/>
<path d="M94.546 75.9998V67.7033H95.527V68.7449H95.5391C95.9872 68.0425 96.7382 67.6307 97.6344 67.6307C99.3058 67.6307 100.505 68.9508 100.505 70.6949C100.505 72.4874 99.2574 73.6744 97.6344 73.6744C96.7018 73.6744 95.9751 73.2626 95.5391 72.5843H95.527V75.9998H94.546ZM97.5012 72.7781C98.6881 72.7781 99.5117 71.8818 99.5117 70.6949C99.5117 69.3868 98.6034 68.5269 97.4891 68.5269C96.29 68.5269 95.4786 69.4837 95.4786 70.6949C95.4786 71.9424 96.3748 72.7781 97.5012 72.7781Z" fill="#BFC4CC"/>
<path d="M104.065 73.6744C102.442 73.6744 101.194 72.4874 101.194 70.6949C101.194 68.9508 102.393 67.6307 104.065 67.6307C104.937 67.6307 105.7 68.0425 106.124 68.757L106.148 68.7449V67.7033H107.129V73.6017H106.184V72.5359H106.172C105.748 73.2383 105.022 73.6744 104.065 73.6744ZM104.21 72.7781C105.3 72.7781 106.184 71.9424 106.184 70.6949C106.184 69.4837 105.373 68.5269 104.21 68.5269C103.096 68.5269 102.187 69.3868 102.187 70.6949C102.187 71.8818 102.999 72.7781 104.21 72.7781Z" fill="#BFC4CC"/>
<path d="M109.856 73.6017V68.5754H107.882V67.7033H112.812V68.5754H110.837V73.6017H109.856Z" fill="#BFC4CC"/>
<path d="M116.107 73.6744C114.278 73.6744 113.055 72.3542 113.055 70.6586C113.055 68.9629 114.278 67.6307 116.107 67.6307C117.851 67.6307 119.147 68.866 119.147 70.6586C119.147 72.4511 117.851 73.6744 116.107 73.6744ZM116.107 72.7781C117.233 72.7781 118.142 71.9182 118.142 70.6586C118.142 69.399 117.245 68.5269 116.107 68.5269C114.871 68.5269 114.06 69.4837 114.06 70.6586C114.06 71.8334 114.884 72.7781 116.107 72.7781Z" fill="#BFC4CC"/>
<path d="M120.206 75.9998V67.7033H121.187V68.7449H121.199C121.647 68.0425 122.398 67.6307 123.294 67.6307C124.966 67.6307 126.165 68.9508 126.165 70.6949C126.165 72.4874 124.917 73.6744 123.294 73.6744C122.362 73.6744 121.635 73.2626 121.199 72.5843H121.187V75.9998H120.206ZM123.161 72.7781C124.348 72.7781 125.172 71.8818 125.172 70.6949C125.172 69.3868 124.263 68.5269 123.149 68.5269C121.95 68.5269 121.138 69.4837 121.138 70.6949C121.138 71.9424 122.035 72.7781 123.161 72.7781Z" fill="#BFC4CC"/>
<path d="M129.918 73.6744C128.09 73.6744 126.866 72.3542 126.866 70.6586C126.866 68.9629 128.09 67.6307 129.918 67.6307C131.663 67.6307 132.958 68.866 132.958 70.6586C132.958 72.4511 131.663 73.6744 129.918 73.6744ZM129.918 72.7781C131.045 72.7781 131.953 71.9182 131.953 70.6586C131.953 69.399 131.057 68.5269 129.918 68.5269C128.683 68.5269 127.872 69.4837 127.872 70.6586C127.872 71.8334 128.695 72.7781 129.918 72.7781Z" fill="#BFC4CC"/>
<path d="M134.018 73.6017V67.7033H136.767C138.051 67.7033 138.765 68.1878 138.765 69.1446C138.765 69.835 138.45 70.2952 137.796 70.5011V70.5132C138.523 70.6586 139.068 71.143 139.068 71.9545C139.068 72.9355 138.462 73.6017 136.852 73.6017H134.018ZM134.974 70.1983H136.682C137.421 70.1983 137.796 69.9198 137.796 69.3384C137.796 68.757 137.372 68.539 136.718 68.539H134.974V70.1983ZM134.974 72.766H136.779C137.651 72.766 138.063 72.4874 138.063 71.8697C138.063 71.2763 137.627 70.9856 136.839 70.9856H134.974V72.766Z" fill="#BFC4CC"/>
<path d="M143.016 73.6017V66.577H145.644C147.388 66.577 148.102 67.5217 148.102 68.7813C148.102 70.2952 147.049 70.9856 145.486 70.9856H143.997V73.6017H143.016ZM143.997 70.1014H145.486C146.625 70.1014 147.073 69.5443 147.073 68.757C147.073 67.9213 146.552 67.4611 145.607 67.4611H143.997V70.1014Z" fill="#BFC4CC"/>
<path d="M150.597 73.6017V67.4611H148.429V66.577H153.746V67.4611H151.578V73.6017H150.597Z" fill="#BFC4CC"/>
<path d="M157.438 73.6744C155.245 73.6744 153.756 72.1241 153.756 70.0651C153.756 68.0425 155.245 66.4922 157.438 66.4922C159.509 66.4922 161.095 67.9335 161.095 70.0651C161.095 72.2331 159.509 73.6744 157.438 73.6744ZM157.438 72.7418C158.927 72.7418 160.066 71.6396 160.066 70.0651C160.066 68.5148 158.927 67.4369 157.438 67.4369C155.863 67.4369 154.785 68.6117 154.785 70.0651C154.785 71.5548 155.863 72.7418 157.438 72.7418Z" fill="#BFC4CC"/>
<path d="M167.562 73.6744C165.927 73.6744 164.74 72.3784 164.74 70.0772C164.74 67.9819 165.769 66.4922 167.562 66.4922C169.185 66.4922 170.372 67.7881 170.372 70.0772C170.372 72.1725 169.354 73.6744 167.562 73.6744ZM167.562 72.7539C168.7 72.7539 169.379 71.7244 169.379 70.0772C169.379 68.3695 168.616 67.4005 167.562 67.4005C166.411 67.4005 165.733 68.4421 165.733 70.0772C165.733 71.7849 166.496 72.7539 167.562 72.7539Z" fill="#BFC4CC"/>
<path d="M170.825 73.6017V72.9477L173.344 70.5617C173.95 69.9803 174.495 69.4232 174.495 68.6965C174.495 68.0061 173.913 67.4005 173.126 67.4005C172.424 67.4005 171.867 67.7154 171.515 68.3452L170.837 67.8244C171.249 67.0493 172.048 66.4922 173.187 66.4922C174.374 66.4922 175.476 67.3158 175.476 68.5996C175.476 69.4474 175.112 70.1257 174.156 71.0098L172.303 72.7054L172.315 72.7296H175.561V73.6017H170.825Z" fill="#BFC4CC"/>
<path d="M179.055 73.6744C177.42 73.6744 176.233 72.3784 176.233 70.0772C176.233 67.9819 177.263 66.4922 179.055 66.4922C180.678 66.4922 181.865 67.7881 181.865 70.0772C181.865 72.1725 180.848 73.6744 179.055 73.6744ZM179.055 72.7539C180.194 72.7539 180.872 71.7244 180.872 70.0772C180.872 68.3695 180.109 67.4005 179.055 67.4005C177.905 67.4005 177.226 68.4421 177.226 70.0772C177.226 71.7849 177.989 72.7539 179.055 72.7539Z" fill="#BFC4CC"/>
<path d="M182.162 66.5648H186.692V67.2189L183.833 73.7228L182.876 73.5411L185.638 67.4369H182.162V66.5648Z" fill="#BFC4CC"/>
<path d="M186.965 73.6017V72.9477L189.484 70.5617C190.09 69.9803 190.635 69.4232 190.635 68.6965C190.635 68.0061 190.054 67.4005 189.266 67.4005C188.564 67.4005 188.007 67.7154 187.655 68.3452L186.977 67.8244C187.389 67.0493 188.188 66.4922 189.327 66.4922C190.514 66.4922 191.616 67.3158 191.616 68.5996C191.616 69.4474 191.253 70.1257 190.296 71.0098L188.443 72.7054L188.455 72.7296H191.701V73.6017H186.965Z" fill="#BFC4CC"/>
<path d="M194.578 73.6744C193.318 73.6744 192.373 73.0688 191.998 72.2452L192.822 71.8334C193.088 72.3784 193.73 72.7781 194.553 72.7781C195.401 72.7781 196.019 72.3057 196.019 71.5669C196.019 70.9129 195.498 70.3558 194.408 70.3558H193.79V69.5322H194.529C195.462 69.5322 195.837 69.0356 195.837 68.4664C195.837 67.8244 195.232 67.3884 194.469 67.3884C193.754 67.3884 193.33 67.667 193.015 68.1272L192.252 67.6428C192.64 66.9887 193.415 66.4922 194.481 66.4922C195.777 66.4922 196.794 67.1704 196.794 68.3331C196.794 68.975 196.479 69.5685 195.801 69.8955V69.9198C196.612 70.2104 197 70.8645 197 71.688C197 72.875 195.995 73.6744 194.578 73.6744Z" fill="#BFC4CC"/>
</svg>
