<svg xmlns="http://www.w3.org/2000/svg" viewBox="0 0 240.47 104.32"><defs><style>.cls-1{fill:#ee4056}.cls-2{fill:#4c413d}.cls-4{fill:#f8d250}</style></defs><g id="Слой_2" data-name="Слой 2"><g id="Layer_1" data-name="Layer 1"><path class="cls-1" d="M113 34.09a1.07 1.07 0 0 1-1-.62c-.11-.23-.3-.59-.51-1-.53-1-1.2-2.34-1.52-3.16a1.08 1.08 0 1 1 2-.79c.28.73 1 2 1.43 3 .23.43.42.81.54 1.06a1.08 1.08 0 0 1-.51 1.44 1 1 0 0 1-.46.11m-81.4-18.61a11.07 11.07 0 0 0-10.1 8.09 8.76 8.76 0 0 0-.19 1.08l15.19-6.83a5.78 5.78 0 0 0-4.9-2.34m-4.45 17.83a7.94 7.94 0 0 1-6.43-2.93 8.34 8.34 0 0 1-1.31-7.33c1.33-5.37 6.8-9.74 12.18-9.74A7.71 7.71 0 0 1 39 17.94a1.08 1.08 0 0 1-.55 1.41L21.4 27a5.27 5.27 0 0 0 1 2.08 5.82 5.82 0 0 0 4.73 2.1 11.88 11.88 0 0 0 9.28-5 1.08 1.08 0 0 1 1.82 1.17 14 14 0 0 1-11.1 6m58.94.34a8 8 0 0 1-6.52-3 8.46 8.46 0 0 1-1.32-7.42C79.62 17.73 85.29 13 90.62 13a7.8 7.8 0 0 1 7.5 4.65 1.06 1.06 0 0 1-.57 1.41 1.08 1.08 0 0 1-1.42-.56 5.71 5.71 0 0 0-5.51-3.34c-4.42 0-9.13 4-10.3 8.65a6.35 6.35 0 0 0 .94 5.57 5.89 5.89 0 0 0 4.81 2.14 12.08 12.08 0 0 0 9.43-5.05 1.08 1.08 0 0 1 1.5-.33 1.07 1.07 0 0 1 .32 1.49 14.16 14.16 0 0 1-11.25 6m55.39.21h-.27a1.08 1.08 0 0 1-.78-1.32l4-15.53-23.8 16.2A1.08 1.08 0 0 1 119 32l4.49-17.85a1.08 1.08 0 1 1 2.09.53l-3.84 15.12 23.77-16.24a1.08 1.08 0 0 1 1.65 1.16L142.51 33a1.09 1.09 0 0 1-1 .81m11.57-.13a1.26 1.26 0 0 1-.27 0 1.08 1.08 0 0 1-.79-1.31l4.46-17.86a1.08 1.08 0 1 1 2.1.52l-4.46 17.86a1.09 1.09 0 0 1-1 .83"/><path class="cls-1" d="M163 15.39h-10.84a1.08 1.08 0 0 1 0-2.16H163a1.08 1.08 0 1 1 0 2.16M53.34 33.54a.84.84 0 0 1-.27 0 1.06 1.06 0 0 1-.77-1.31l3.88-14.87-15.94 15.79a1.07 1.07 0 0 1-1.52 0 1.08 1.08 0 0 1 0-1.53L57.46 13a1.1 1.1 0 0 1 1.31-.17 1.09 1.09 0 0 1 .5 1.21l-4.88 18.7a1.09 1.09 0 0 1-1 .81m86.73-23.14a9.42 9.42 0 0 1-5.12-1.7c-1.68-1.16-4.15-1.58-5.6-.13a1.08 1.08 0 0 1-1.53-1.53c2.39-2.38 6-1.74 8.36-.13 1.94 1.34 4.79 1.9 6.18.51A1.08 1.08 0 0 1 143.9 9a5.18 5.18 0 0 1-3.78 1.45M70.91 15A4.4 4.4 0 0 0 67 18.06l-2.79 11.26a2.18 2.18 0 0 0 .36 1.84 2 2 0 0 0 1.65.69 4.41 4.41 0 0 0 4-3.2l2.69-11a2.23 2.23 0 0 0-.3-2 2 2 0 0 0-1.7-.65m-4.69 19a4.15 4.15 0 0 1-3.33-1.5 4.31 4.31 0 0 1-.79-3.68l2.78-11.33a6.62 6.62 0 0 1 6-4.7 4.14 4.14 0 0 1 3.37 1.55 4.41 4.41 0 0 1 .7 3.82c0 .08-2.64 10.81-2.69 11A6.55 6.55 0 0 1 66.22 34m44.43-19a4.43 4.43 0 0 0-4 3.08L104 29.32a2.18 2.18 0 0 0 .36 1.84 2 2 0 0 0 1.65.69 4.41 4.41 0 0 0 4-3.2l2.69-11a2.2 2.2 0 0 0-.3-2 2 2 0 0 0-1.67-.72M106 34a4.15 4.15 0 0 1-3.33-1.5 4.31 4.31 0 0 1-.79-3.68l2.77-11.33a6.64 6.64 0 0 1 6-4.7 4.18 4.18 0 0 1 3.35 1.57 4.44 4.44 0 0 1 .69 3.82c0 .08-2.64 10.81-2.69 11a6.55 6.55 0 0 1-6 4.82M4.08 33.49a1.27 1.27 0 0 1-.26 0A1.08 1.08 0 0 1 3 32.15L9.29 7.07a1.08 1.08 0 1 1 2.09.52L5.13 32.67a1.08 1.08 0 0 1-1 .82"/><path class="cls-1" d="M8.46 18.75a1.08 1.08 0 1 1 0-2.16 6 6 0 0 0 5.36-4.32 3.11 3.11 0 0 0-.44-2.74 2.89 2.89 0 0 0-2.36-1 1.09 1.09 0 0 1 0-2.17 5 5 0 0 1 4.07 1.87 5.33 5.33 0 0 1 .83 4.61 8 8 0 0 1-7.46 5.95"/><path class="cls-1" d="M5 33.5a1.08 1.08 0 1 1 0-2.16 9 9 0 0 0 8.16-6.56 5 5 0 0 0-.72-4.37 4.65 4.65 0 0 0-3.76-1.67 1.08 1.08 0 1 1 0-2.16 6.73 6.73 0 0 1 5.46 2.5 7.09 7.09 0 0 1 1.12 6.22A11.22 11.22 0 0 1 5 33.5"/><path class="cls-2" d="M178.66 64.65c-5 .26-2.41-8.55-2.41-8.55S187 14.2 188.32 8.62c-9.67 1.73-13.39 11.18-14.43 15.38-2.39 9.6-6 24.68-7.89 32.29s4.27 10.9 8 11.59c1.26.23 6.07.16 6.07.16l.66-3.33zM207.71 43l26.41 15.86a1.74 1.74 0 0 0-.6-2.4l-3.18-1.93a1.19 1.19 0 0 1 1.22-.29l4.44 2.68a1.72 1.72 0 0 0-.61-2.38l-2.82-1.7-.66-.42a1 1 0 0 1 1.21-.38l3.39 2a1.8 1.8 0 0 0-.74-2.42l-21.54-12.85c-2.11 1.4-4.39 2.82-6.52 4.24m-.29-38.23c.64-1 1.48-2.2 2.8-3.9.65-.84 1.14-.9 1.52-.88-.23 1.41-1 5.07-1 5.07a11.5 11.5 0 0 0-3.35-.29"/><path class="cls-2" d="M205.6 96c-2.84-2.12-7-4.82-7-4.82s16.19-15.81 1.19-25.77c.35-1.48 1.13-4.53 1.13-4.53l4.74-19.09L240.47 21a2 2 0 0 0-2.61-.69l-3.16 1.94A1.15 1.15 0 0 1 235 21l4.39-2.71a1.73 1.73 0 0 0-2.4-.54l-2.8 1.72c-.2.11-.4.25-.68.4a1 1 0 0 1 .22-1.25l3.38-2.08a1.83 1.83 0 0 0-2.51-.45l-26.12 15.5s2.06-8.07 2.66-10.49c3.06 0 6-3.08 6-3.08s-4.73.1-8.93.1c.13-.41.39-1.33.5-1.73 4-.26 7.51-.62 10.38-2 4.24-2 4.35-5.25 4.35-5.25H212.5s.84-2.76-5.53-2.76a11.08 11.08 0 0 0-1.66.12l1.57-6.14s-.57 0-1.31 1c-1.71 2.12-4.48 5.74-6.39 8.21-4.07 3.89-5.17 10-5.17 10s-7.13 27.63-9.54 38.24c-.95 4.15-3.66 11.06 1.92 14.75 1.5 1 6.13 3.51 8 4.75-.55 1.88-4.08 14.91-4.5 16.39l10.53 6.67a4.05 4.05 0 0 0 .8 2.64c.24.29 1 .72 1.15-.3a5.48 5.48 0 0 0-.1-1.94.42.42 0 0 1 .29-.52.41.41 0 0 1 .52.29 5.15 5.15 0 0 1-.32 3.6 1.67 1.67 0 0 0 2.43-1 4.37 4.37 0 0 0-.18-2.6.41.41 0 0 1 .21-.55.42.42 0 0 1 .56.21c0 .11 1.32 2.3-.32 4a2.68 2.68 0 0 0 2.33-1.13c.83-1.49.95-4.69-2.18-7"/><path class="cls-2" d="M228 83c-1.74-1.11-6.9-4.67-6.9-4.67 1.47-3.22 15.25-20.75-3.85-22.11-3.59-.26-7.76-.46-12.81-.54l-2.12 8.72a9.67 9.67 0 0 1 3.94 3.85h10.67s-3.26 12.43-3.56 13.47c.37.19 9.44 5.64 9.44 5.64a4.05 4.05 0 0 0 .8 2.64c.24.29 1 .72 1.16-.3a5.62 5.62 0 0 0-.11-1.94.42.42 0 1 1 .81-.23 5.24 5.24 0 0 1-.32 3.61 1.68 1.68 0 0 0 2.43-1 4.16 4.16 0 0 0-.19-2.6.43.43 0 0 1 .78-.34c0 .11 1.32 2.3-.32 4a2.65 2.65 0 0 0 2.33-1.12A5.4 5.4 0 0 0 228 83"/><path class="cls-1" d="M215 17.27s2.76-2.55 5.76-1 5.65.74 6.66-.32a5.47 5.47 0 0 1-5.42 3.76c-1.68-.11-2.39-1.07-3.85-2a4.21 4.21 0 0 0-3.19-.42"/><path d="M196.05 22.97l1.09 2.43 2.15-2.43h-3.24zm2.96 3.31l1.08 2.43 2.15-2.43h-3.23zm4.52-2.95l1.08 2.43 2.15-2.43h-3.23zm-8.81 6.38l1.09 2.42 2.15-2.42h-3.24zm7.16.24l1.08 2.42 2.15-2.42h-3.23zm8.37-21.01l-4.12.72a4.66 4.66 0 0 0 2.87 1.46c1.48 0 1.28-2.18 1.28-2.18" fill="#fff"/><path class="cls-4" d="M112.74 54.83c-8.34 0-16.83 6.8-18.91 15.18a15.2 15.2 0 0 0-.38 2l28.49-12.81a10.85 10.85 0 0 0-9.2-4.39m-8.33 33.43a14.86 14.86 0 0 1-12.06-5.5C89.47 79.08 88.6 74.2 89.89 69c2.51-10 12.76-18.23 22.85-18.23 6.4 0 11.59 3.23 13.89 8.61a2 2 0 0 1-1 2.64L93.68 76.38a10.24 10.24 0 0 0 1.86 3.89 10.92 10.92 0 0 0 8.87 3.94c6.51 0 14-4 17.39-9.32a2 2 0 0 1 3.42 2.18c-4.16 6.49-12.91 11.19-20.81 11.19m30.59.61a2 2 0 0 1-2-2.52l8.36-33.48a2 2 0 1 1 3.92 1L137 87.33a2 2 0 0 1-2 1.54"/><path class="cls-4" d="M153.62 54.6h-20.29a2 2 0 1 1 0-4.05h20.29a2 2 0 1 1 0 4.05M76.44 88.62a1.61 1.61 0 0 1-.52-.08 2 2 0 0 1-1.45-2.46l7.29-27.87-29.88 29.67A2 2 0 1 1 49 85l35.16-34.9a2 2 0 0 1 3.39 1.9L78.4 87.1a2 2 0 0 1-2 1.52m-69.51.13a2.05 2.05 0 0 1-.49-.06A2 2 0 0 1 5 86.28l10.5-41.16-12.29 9.62a2 2 0 1 1-2.45-3.12l16.85-13.21a2 2 0 0 1 2.3-.1 2 2 0 0 1 .84 2.15L8.81 87.26a2 2 0 0 1-1.92 1.49zm11.8-.42a2 2 0 0 1-1.43-.6 2 2 0 0 1 0-2.83L60.6 42.18H37.07a2 2 0 0 1 0-4h28.4a2 2 0 0 1 1.41 3.43L20.09 87.75a2 2 0 0 1-1.4.58z"/></g></g></svg>